<?xml version="1.0" encoding="utf-8"?>
<!-- Generator: Adobe Illustrator 19.0.0, SVG Export Plug-In . SVG Version: 6.00 Build 0)  -->
<svg version="1.1" id="Layer_1" xmlns="http://www.w3.org/2000/svg" xmlns:xlink="http://www.w3.org/1999/xlink" x="0px" y="0px"
	 width="379.6px" height="603.2px" viewBox="0 0 379.6 603.2" style="enable-background:new 0 0 379.6 603.2;" xml:space="preserve"
	>
<style type="text/css">
	.st0{fill:#FFFFFF;}
</style>
<g id="XMLID_20_">
	<path id="XMLID_25_" class="st0" d="M330.8,526c-3.8-7.7-9.3-13.7-16.6-18.2c-7.3-4.5-15.8-6.7-25.7-6.7c-9.4,0.2-17.7,2.5-25,6.9
		c-7.3,4.4-12.9,10.5-16.9,18.2c-4,7.8-6,16.6-6,26.4c0,9.5,1.9,18,5.7,25.6c3.8,7.6,9.3,13.6,16.5,18.1c7.2,4.5,15.8,6.7,25.6,6.7
		c9.5-0.2,17.8-2.5,25.1-6.8c7.2-4.4,12.9-10.4,16.9-18.1c4-7.7,6-16.5,6-26.5C336.5,542.3,334.6,533.7,330.8,526z"/>
	<path class="st0" d="M326,56C290.2,18.7,241.6,0,180,0c-37.6,0-72.5,12.6-104.7,37.6L54,10.6H0v592.5h105.5V398.4
		c25.1,12.5,48.8,18.8,71.2,18.8c42,0,78.2-8.7,108.8-26.2c30.5-17.4,53.8-42,69.9-73.6c16.1-31.6,24.1-68.2,24.1-109.6
		C379.6,144,361.7,93.4,326,56z M244.6,293.3c-16.9,22.1-39.8,33.1-68.7,33.1c-24.5,0-48-7.6-70.3-22.9v-189
		c24-15.8,47.4-23.7,70.3-23.7c29.4,0,52.5,10.8,69.1,32.3c16.6,21.5,25,49.8,25,84.7C269.9,242.7,261.5,271.2,244.6,293.3z"/>
</g>
</svg>
