<?xml version="1.0" encoding="utf-8"?>
<!-- Generator: Adobe Illustrator 19.0.0, SVG Export Plug-In . SVG Version: 6.00 Build 0)  -->
<svg version="1.1" id="Layer_1" xmlns="http://www.w3.org/2000/svg" xmlns:xlink="http://www.w3.org/1999/xlink" x="0px" y="0px"
	 width="385.3px" height="98.9px" viewBox="0 0 385.3 98.9" style="enable-background:new 0 0 385.3 98.9;" xml:space="preserve">
<style type="text/css">
	.st0{fill:#FFFFFF;}
</style>
<path class="st0" d="M25.3,14.2c-5.3,0-10.2,1.8-14.7,5.3l-3-3.8H0v83.2h14.8V70.2c3.5,1.8,6.8,2.6,10,2.6c5.9,0,11-1.2,15.3-3.7
	c4.3-2.4,7.6-5.9,9.8-10.3c2.3-4.4,3.4-9.6,3.4-15.4c0-9-2.5-16.1-7.5-21.3C40.7,16.9,33.9,14.2,25.3,14.2z M34.3,55.4
	C32,58.5,28.7,60,24.7,60c-3.4,0-6.7-1.1-9.9-3.2V30.3c3.4-2.2,6.7-3.3,9.9-3.3c4.1,0,7.4,1.5,9.7,4.5c2.3,3,3.5,7,3.5,11.9
	C37.9,48.3,36.7,52.3,34.3,55.4z M100.6,18.1c-3.8-2.6-8.5-3.9-14.1-3.9c-5.7,0-10.7,1.2-14.9,3.6c-4.2,2.4-7.4,5.8-9.7,10.3
	c-2.3,4.4-3.4,9.6-3.4,15.5c0,9.1,2.7,16.2,8.2,21.4c5.5,5.2,13.5,7.8,24.1,7.8c4.5,0,8.4-0.6,11.7-1.8c3.3-1.2,6.4-2.9,9.2-5.1
	l-4.4-10.8c-2.8,1.6-5.5,2.8-7.9,3.7C96.9,59.6,94.1,60,91,60c-5.3,0-9.2-1-11.8-3.1c-2.6-2.1-4.2-5.1-5-9h37.5v-4.6
	c0-5.4-0.9-10.4-2.8-14.8C107.2,24.2,104.4,20.7,100.6,18.1z M74.4,38c0.6-3.6,2-6.3,4-8.2c2.1-1.9,4.6-2.8,7.7-2.8
	c3.1,0,5.6,0.9,7.5,2.8c2,1.8,3.3,4.6,4.1,8.3H74.4z M151.2,59.5l4.4,10.8c-1.1,0.9-2.9,1.7-5.1,2.4c-2.3,0.7-4.3,1-6.1,1
	c-7,0-12.4-1.8-16.3-5.3c-3.9-3.5-5.9-8.5-5.9-14.8V27.3h-7.5V15.8h7.5V2.6L137,0v15.8h10.1l4.6,11.5H137V51c0,3,0.7,5.4,2.1,7.2
	c1.4,1.8,3.4,2.8,6,2.8C147.1,61,149.1,60.5,151.2,59.5z M194.2,15.7l3,11.9c-2.5,0-5.6,0.9-9.4,2.8c-3.7,1.8-7.2,4.2-10.4,7v34
	h-14.9V15.7h7.8l4.9,9.3c2.7-2.4,5.8-4.5,9.4-6.4C188.2,16.7,191.4,15.7,194.2,15.7z M240,18.1c-3.8-2.6-8.5-3.9-14.1-3.9
	c-5.7,0-10.7,1.2-14.9,3.6c-4.2,2.4-7.4,5.8-9.7,10.3c-2.3,4.4-3.4,9.6-3.4,15.5c0,9.1,2.7,16.2,8.2,21.4c5.5,5.2,13.5,7.8,24.1,7.8
	c4.5,0,8.4-0.6,11.7-1.8c3.3-1.2,6.4-2.9,9.2-5.1l-4.4-10.8c-2.8,1.6-5.5,2.8-7.9,3.7c-2.5,0.8-5.2,1.3-8.3,1.3
	c-5.3,0-9.2-1-11.8-3.1c-2.6-2.1-4.2-5.1-5-9h37.5v-4.6c0-5.4-0.9-10.4-2.8-14.8C246.7,24.2,243.8,20.7,240,18.1z M213.8,38
	c0.6-3.6,2-6.3,4-8.2c2.1-1.9,4.6-2.8,7.7-2.8c3.1,0,5.6,0.9,7.5,2.8c2,1.8,3.3,4.6,4.1,8.3H213.8z M331.1,59.5l4.4,10.8
	c-1.1,0.9-2.9,1.7-5.1,2.4c-2.3,0.7-4.3,1-6.1,1c-7,0-12.4-1.8-16.3-5.3C304,64.9,302,60,302,53.6V27.3h-7.5h-18.2V51
	c0,3,0.7,5.4,2.1,7.2c1.4,1.8,3.4,2.8,6,2.8c2,0,4-0.5,6.1-1.5l4.4,10.8c-1.1,0.9-2.9,1.7-5.1,2.4c-2.3,0.7-4.3,1-6.1,1
	c-7,0-12.4-1.8-16.3-5.3c-3.9-3.5-5.9-8.5-5.9-14.8V27.3h-7.5V15.8h7.5V2.6L276.4,0v15.8h18.2h5.9h1.6V2.6L316.8,0v15.8h10.1
	l4.6,11.5h-14.7V51c0,3,0.7,5.4,2.1,7.2c1.4,1.8,3.4,2.8,6,2.8C327,61,329,60.5,331.1,59.5z M381.9,24.2c-2.2-3.1-5.1-5.6-8.8-7.3
	c-3.7-1.8-7.7-2.6-12.2-2.6c-2.6,0-6.1,0.5-10.4,1.5c-4.4,1-7.5,2.2-9.5,3.5l4,12.4c2.1-1,4.7-1.9,7.8-2.6c3.1-0.7,5.9-1.1,8.4-1.1
	c2.8,0,4.9,0.8,6.5,2.4c1.6,1.6,2.4,3.8,2.5,6.6h-10.9c-6.4,0-11.6,1.5-15.4,4.6c-3.8,3.1-5.7,7.5-5.7,13.1c0,5.5,1.7,9.9,5.1,13.1
	c3.4,3.3,8.4,4.9,15,4.9c5.1,0,10-2.4,14.7-7.3l2.5,6h9.8V34.8C385.2,30.9,384.1,27.4,381.9,24.2z M370.3,55.5
	c-3.8,3.7-7.8,5.5-12.3,5.5c-2.1,0-3.8-0.6-5.1-1.8c-1.3-1.2-2-2.7-2-4.4c0-2.1,0.7-4,2.2-5.5c1.5-1.5,3.5-2.3,5.9-2.3h11.3V55.5z
	 M41,84.6c0.5,0,1.1,0.1,1.8,0.2c0.7,0.1,1.3,0.4,1.9,0.7l-0.8,1.9l-0.5-0.1c-0.5-0.2-0.9-0.3-1.2-0.3c-0.3-0.1-0.7-0.1-1.1-0.1
	c-0.7,0-1.4,0.2-2,0.6c-0.6,0.4-1,1-1.4,1.7c-0.3,0.8-0.5,1.6-0.5,2.6c0,0.9,0.1,1.7,0.4,2.5c0.3,0.7,0.7,1.3,1.3,1.8
	c0.6,0.4,1.2,0.7,2,0.7c1,0,2-0.2,3-0.6l1,1.9c-0.5,0.3-1.1,0.5-1.9,0.6c-0.7,0.2-1.4,0.2-2,0.2c-1.4,0-2.6-0.3-3.5-0.9
	c-1-0.6-1.7-1.5-2.2-2.5c-0.5-1.1-0.7-2.3-0.7-3.6c0-1.4,0.3-2.6,0.8-3.7c0.5-1.1,1.3-1.9,2.3-2.5C38.5,84.9,39.6,84.6,41,84.6z
	 M55.8,91.8c0-1.4,0.3-2.6,0.8-3.7c0.6-1.1,1.3-1.9,2.4-2.6c1-0.6,2.2-0.9,3.5-1c1.4,0,2.6,0.3,3.6,0.9c1,0.6,1.8,1.5,2.3,2.5
	c0.5,1.1,0.8,2.3,0.8,3.6c0,1.4-0.3,2.6-0.8,3.7c-0.6,1.1-1.4,1.9-2.4,2.5c-1,0.6-2.2,0.9-3.5,1c-1.4,0-2.6-0.3-3.6-0.9
	s-1.8-1.5-2.3-2.5C56.1,94.4,55.8,93.2,55.8,91.8z M62.5,86.8c-0.7,0-1.4,0.2-2,0.6c-0.6,0.4-1.1,1-1.5,1.8
	c-0.4,0.8-0.6,1.6-0.6,2.6c0,1,0.2,1.8,0.5,2.6c0.3,0.7,0.8,1.3,1.4,1.7c0.6,0.4,1.3,0.6,2.1,0.6c0.8,0,1.4-0.2,2-0.6
	c0.6-0.4,1.1-0.9,1.5-1.7c0.4-0.8,0.5-1.7,0.5-2.8c0-0.9-0.2-1.8-0.5-2.5c-0.3-0.7-0.8-1.3-1.4-1.7C64,87,63.3,86.8,62.5,86.8z
	 M84.3,89.4v9.2h-2.6V84.9h2.6l6.3,9.2v-9.2h2.6v13.7h-2.6L84.3,89.4z M110.1,98.9c-0.6,0-1.3-0.1-2.1-0.4c-0.8-0.2-1.5-0.5-1.9-0.8
	l0.6-2.1c0.5,0.3,1.1,0.5,1.7,0.7c0.6,0.2,1.2,0.3,1.7,0.3c0.8,0,1.4-0.1,1.8-0.4c0.4-0.3,0.6-0.6,0.6-1.1c0-0.3-0.2-0.6-0.5-0.9
	c-0.3-0.3-0.8-0.6-1.5-1l-0.6-0.4c-0.9-0.5-1.6-1-2.1-1.4c-0.5-0.4-1-0.8-1.4-1.4c-0.4-0.5-0.6-1.1-0.6-1.8c0-0.7,0.2-1.3,0.6-1.9
	c0.4-0.6,0.9-1,1.6-1.3c0.7-0.3,1.5-0.5,2.5-0.5c1.2,0,2.4,0.3,3.9,1l-0.9,2.1c-0.6-0.3-1.1-0.5-1.5-0.6c-0.5-0.1-0.9-0.2-1.5-0.2
	c-0.6,0-1.1,0.1-1.5,0.4c-0.4,0.2-0.6,0.6-0.6,1c0,0.4,0.2,0.7,0.5,1s0.8,0.6,1.5,1l0.6,0.4l0.6,0.3c0.8,0.5,1.4,0.9,1.9,1.2
	c0.5,0.3,0.9,0.8,1.2,1.2c0.3,0.5,0.5,1.1,0.5,1.7c0,0.7-0.2,1.4-0.6,2c-0.4,0.6-1,1-1.8,1.3C112.1,98.7,111.2,98.9,110.1,98.9z
	 M126,84.9h11.1l0.4,2.1h-4.7v11.7h-2.6V87H126V84.9z M149.5,98.6V84.9h4.3c1.6,0,2.9,0.4,3.9,1.1c1,0.7,1.5,1.8,1.5,3.1
	c0,0.8-0.2,1.5-0.6,2.2c-0.4,0.6-1,1.1-1.7,1.5l3.4,5.9h-2.8l-2.9-5.2h-2.5v5.2H149.5z M156.5,89.2c0-1.4-0.9-2.2-2.7-2.2h-1.6v4.2
	h1.7c0.8,0,1.5-0.2,2-0.5C156.2,90.5,156.5,89.9,156.5,89.2z M172,84.9h2.6v8.5c0,1.1,0.3,1.9,0.8,2.4c0.5,0.5,1.3,0.8,2.2,0.8
	c0.9,0,1.6-0.3,2.2-0.8c0.5-0.6,0.8-1.4,0.8-2.4v-8.5h2.6v8.7c0,1-0.2,1.9-0.7,2.7c-0.5,0.8-1.1,1.4-2,1.9c-0.9,0.5-1.9,0.7-3,0.7
	c-1.1,0-2.1-0.2-2.9-0.7c-0.8-0.5-1.5-1.1-2-1.9c-0.5-0.8-0.7-1.7-0.7-2.7L172,84.9z M202.2,84.6c0.5,0,1.1,0.1,1.8,0.2
	c0.7,0.1,1.3,0.4,1.9,0.7l-0.8,1.9l-0.5-0.1c-0.5-0.2-0.9-0.3-1.2-0.3c-0.3-0.1-0.7-0.1-1.1-0.1c-0.7,0-1.4,0.2-2,0.6
	c-0.6,0.4-1,1-1.4,1.7c-0.3,0.8-0.5,1.6-0.5,2.6c0,0.9,0.1,1.7,0.4,2.5c0.3,0.7,0.7,1.3,1.3,1.8c0.6,0.4,1.2,0.7,2,0.7
	c1,0,2-0.2,3-0.6l1,1.9c-0.5,0.3-1.1,0.5-1.9,0.6c-0.7,0.2-1.4,0.2-2,0.2c-1.4,0-2.6-0.3-3.5-0.9c-1-0.6-1.7-1.5-2.2-2.5
	c-0.5-1.1-0.7-2.3-0.7-3.6c0-1.4,0.3-2.6,0.8-3.7c0.5-1.1,1.3-1.9,2.3-2.5C199.8,84.9,200.9,84.6,202.2,84.6z M216.6,84.9h11.1
	l0.4,2.1h-4.7v11.7h-2.6V87h-4.2V84.9z M242.7,84.9v13.7h-2.6V84.9H242.7z M255.2,91.8c0-1.4,0.3-2.6,0.8-3.7
	c0.6-1.1,1.3-1.9,2.4-2.6c1-0.6,2.2-0.9,3.5-1c1.4,0,2.6,0.3,3.6,0.9c1,0.6,1.8,1.5,2.3,2.5c0.5,1.1,0.8,2.3,0.8,3.6
	c0,1.4-0.3,2.6-0.8,3.7c-0.6,1.1-1.4,1.9-2.4,2.5c-1,0.6-2.2,0.9-3.5,1c-1.4,0-2.6-0.3-3.6-0.9c-1-0.6-1.8-1.5-2.3-2.5
	C255.4,94.4,255.2,93.2,255.2,91.8z M261.9,86.8c-0.7,0-1.4,0.2-2,0.6c-0.6,0.4-1.1,1-1.5,1.8c-0.4,0.8-0.6,1.6-0.6,2.6
	c0,1,0.2,1.8,0.5,2.6c0.3,0.7,0.8,1.3,1.4,1.7c0.6,0.4,1.3,0.6,2.1,0.6c0.8,0,1.4-0.2,2-0.6c0.6-0.4,1.1-0.9,1.5-1.7
	c0.4-0.8,0.5-1.7,0.5-2.8c0-0.9-0.2-1.8-0.5-2.5c-0.3-0.7-0.8-1.3-1.4-1.7C263.4,87,262.7,86.8,261.9,86.8z M283.7,89.4v9.2h-2.6
	V84.9h2.6l6.3,9.2v-9.2h2.6v13.7h-2.6L283.7,89.4z M323.4,84.9v13.7h-2.6V84.9H323.4z M339.5,89.4v9.2h-2.6V84.9h2.6l6.3,9.2v-9.2
	h2.6v13.7h-2.6L339.5,89.4z M367.6,84.6c0.5,0,1.1,0.1,1.8,0.2c0.7,0.1,1.3,0.4,1.9,0.7l-0.8,1.9l-0.5-0.1c-0.5-0.2-0.9-0.3-1.2-0.3
	c-0.3-0.1-0.7-0.1-1.1-0.1c-0.7,0-1.4,0.2-2,0.6c-0.6,0.4-1,1-1.4,1.7c-0.3,0.8-0.5,1.6-0.5,2.6c0,0.9,0.1,1.7,0.4,2.5
	c0.3,0.7,0.7,1.3,1.3,1.8c0.6,0.4,1.2,0.7,2,0.7c1,0,2-0.2,3-0.6l1,1.9c-0.5,0.3-1.1,0.5-1.9,0.6c-0.7,0.2-1.4,0.2-2,0.2
	c-1.4,0-2.6-0.3-3.5-0.9c-1-0.6-1.7-1.5-2.2-2.5c-0.5-1.1-0.7-2.3-0.7-3.6c0-1.4,0.3-2.6,0.8-3.7c0.5-1.1,1.3-1.9,2.3-2.5
	C365.1,84.9,366.3,84.6,367.6,84.6z M385.3,97.1c0,0.4-0.1,0.8-0.4,1c-0.3,0.3-0.6,0.4-1,0.4c-0.4,0-0.8-0.1-1.1-0.4
	c-0.3-0.3-0.4-0.6-0.4-1c0-0.4,0.1-0.8,0.4-1c0.3-0.3,0.6-0.4,1.1-0.4c0.4,0,0.8,0.1,1,0.4C385.1,96.4,385.3,96.7,385.3,97.1z"/>
</svg>
